<mxfile host="Electron" agent="Mozilla/5.0 (X11; Linux x86_64) AppleWebKit/537.36 (KHTML, like Gecko) draw.io/26.1.1 Chrome/132.0.6834.210 Electron/34.3.3 Safari/537.36" version="26.1.1">
  <diagram name="Page-1" id="2YBvvXClWsGukQMizWep">
    <mxGraphModel dx="276" dy="169" grid="1" gridSize="10" guides="1" tooltips="1" connect="1" arrows="1" fold="1" page="1" pageScale="1" pageWidth="1169" pageHeight="827" background="#ffffff" math="0" shadow="0">
      <root>
        <mxCell id="0" />
        <mxCell id="1" parent="0" />
        <mxCell id="title" value="Processus de Commande&amp;nbsp;" style="text;html=1;strokeColor=none;fillColor=none;align=center;verticalAlign=middle;whiteSpace=wrap;rounded=0;fontSize=16;fontStyle=1;" parent="1" vertex="1">
          <mxGeometry x="350" y="20" width="469" height="30" as="geometry" />
        </mxCell>
        <mxCell id="client" value="Client" style="shape=umlActor;verticalLabelPosition=bottom;verticalAlign=top;html=1;outlineConnect=0;" parent="1" vertex="1">
          <mxGeometry x="70" y="70" width="30" height="60" as="geometry" />
        </mxCell>
        <mxCell id="frontend" value="&lt;b&gt;Frontend&lt;/b&gt;" style="rounded=1;whiteSpace=wrap;html=1;fillColor=#dae8fc;strokeColor=#6c8ebf;" parent="1" vertex="1">
          <mxGeometry x="320" y="80" width="80" height="40" as="geometry" />
        </mxCell>
        <mxCell id="backend" value="&lt;b&gt;Backend API&lt;/b&gt;" style="rounded=1;whiteSpace=wrap;html=1;fillColor=#d5e8d4;strokeColor=#82b366;" parent="1" vertex="1">
          <mxGeometry x="530" y="80" width="80" height="40" as="geometry" />
        </mxCell>
        <mxCell id="database" value="&lt;b&gt;Base de Données&lt;/b&gt;" style="rounded=1;whiteSpace=wrap;html=1;fillColor=#fff2cc;strokeColor=#d6b656;" parent="1" vertex="1">
          <mxGeometry x="800" y="80" width="80" height="40" as="geometry" />
        </mxCell>
        <mxCell id="payment" value="&lt;b&gt;Service Paiement&lt;/b&gt;" style="rounded=1;whiteSpace=wrap;html=1;fillColor=#f8cecc;strokeColor=#b85450;" parent="1" vertex="1">
          <mxGeometry x="1040" y="80" width="80" height="40" as="geometry" />
        </mxCell>
        <mxCell id="line1" value="" style="endArrow=none;dashed=1;html=1;strokeWidth=4;" parent="1" edge="1">
          <mxGeometry width="50" height="50" relative="1" as="geometry">
            <mxPoint x="85" y="160" as="sourcePoint" />
            <mxPoint x="85" y="810" as="targetPoint" />
          </mxGeometry>
        </mxCell>
        <mxCell id="line2" value="" style="endArrow=none;dashed=1;html=1;strokeWidth=4;exitX=0.5;exitY=1;exitDx=0;exitDy=0;fillColor=#dae8fc;strokeColor=#6c8ebf;" parent="1" source="frontend" edge="1">
          <mxGeometry width="50" height="50" relative="1" as="geometry">
            <mxPoint x="360" y="160" as="sourcePoint" />
            <mxPoint x="360" y="800" as="targetPoint" />
          </mxGeometry>
        </mxCell>
        <mxCell id="line3" value="" style="endArrow=none;dashed=1;html=1;strokeWidth=4;exitX=0.5;exitY=1;exitDx=0;exitDy=0;fillColor=#d5e8d4;strokeColor=#82b366;" parent="1" source="backend" edge="1">
          <mxGeometry width="50" height="50" relative="1" as="geometry">
            <mxPoint x="570" y="160" as="sourcePoint" />
            <mxPoint x="570" y="800" as="targetPoint" />
          </mxGeometry>
        </mxCell>
        <mxCell id="line4" value="" style="endArrow=none;dashed=1;html=1;strokeWidth=4;exitX=0.5;exitY=1;exitDx=0;exitDy=0;fillColor=#fff2cc;strokeColor=#d6b656;" parent="1" source="database" edge="1">
          <mxGeometry width="50" height="50" relative="1" as="geometry">
            <mxPoint x="840" y="150" as="sourcePoint" />
            <mxPoint x="840" y="800" as="targetPoint" />
          </mxGeometry>
        </mxCell>
        <mxCell id="line5" value="" style="endArrow=none;dashed=1;html=1;strokeWidth=4;exitX=0.5;exitY=1;exitDx=0;exitDy=0;fillColor=#f8cecc;strokeColor=#b85450;" parent="1" source="payment" edge="1">
          <mxGeometry width="50" height="50" relative="1" as="geometry">
            <mxPoint x="1080" y="150" as="sourcePoint" />
            <mxPoint x="1080" y="800" as="targetPoint" />
          </mxGeometry>
        </mxCell>
        <mxCell id="msg1" value="&lt;b&gt;&lt;font style=&quot;font-size: 13px;&quot;&gt;1. Consulte le catalogue&lt;/font&gt;&lt;/b&gt;" style="endArrow=block;html=1;strokeWidth=2;" parent="1" edge="1">
          <mxGeometry width="50" height="50" relative="1" as="geometry">
            <mxPoint x="90" y="180" as="sourcePoint" />
            <mxPoint x="360" y="180" as="targetPoint" />
          </mxGeometry>
        </mxCell>
        <mxCell id="msg2" value="&lt;b&gt;&lt;font style=&quot;font-size: 13px;&quot;&gt;GET /api/trees&lt;/font&gt;&lt;/b&gt;" style="endArrow=block;html=1;strokeWidth=2;" parent="1" edge="1">
          <mxGeometry width="50" height="50" relative="1" as="geometry">
            <mxPoint x="360" y="200" as="sourcePoint" />
            <mxPoint x="570" y="200" as="targetPoint" />
          </mxGeometry>
        </mxCell>
        <mxCell id="msg3" value="&lt;b&gt;&lt;font style=&quot;font-size: 13px;&quot;&gt;Récupère arbres&lt;/font&gt;&lt;/b&gt;" style="endArrow=block;html=1;strokeWidth=2;" parent="1" edge="1">
          <mxGeometry width="50" height="50" relative="1" as="geometry">
            <mxPoint x="570" y="220" as="sourcePoint" />
            <mxPoint x="840" y="220" as="targetPoint" />
            <mxPoint as="offset" />
          </mxGeometry>
        </mxCell>
        <mxCell id="msg4" value="&lt;b&gt;&lt;font style=&quot;font-size: 13px;&quot;&gt;Liste arbres&lt;/font&gt;&lt;/b&gt;" style="endArrow=block;html=1;dashed=1;strokeWidth=2;" parent="1" edge="1">
          <mxGeometry width="50" height="50" relative="1" as="geometry">
            <mxPoint x="840" y="240" as="sourcePoint" />
            <mxPoint x="570" y="240" as="targetPoint" />
          </mxGeometry>
        </mxCell>
        <mxCell id="msg5" value="&lt;b&gt;&lt;font style=&quot;font-size: 13px;&quot;&gt;Données produits&lt;/font&gt;&lt;/b&gt;" style="endArrow=block;html=1;dashed=1;strokeWidth=2;" parent="1" edge="1">
          <mxGeometry width="50" height="50" relative="1" as="geometry">
            <mxPoint x="570" y="260" as="sourcePoint" />
            <mxPoint x="360" y="260" as="targetPoint" />
          </mxGeometry>
        </mxCell>
        <mxCell id="msg6" value="&lt;b&gt;&lt;font style=&quot;font-size: 13px;&quot;&gt;Affiche catalogue&lt;/font&gt;&lt;/b&gt;" style="endArrow=block;html=1;dashed=1;strokeWidth=2;" parent="1" edge="1">
          <mxGeometry width="50" height="50" relative="1" as="geometry">
            <mxPoint x="360" y="280" as="sourcePoint" />
            <mxPoint x="90" y="280" as="targetPoint" />
          </mxGeometry>
        </mxCell>
        <mxCell id="msg7" value="&lt;b&gt;&lt;font style=&quot;font-size: 13px;&quot;&gt;2. Ajoute arbre(s) au panier&lt;/font&gt;&lt;/b&gt;" style="endArrow=block;html=1;strokeWidth=2;" parent="1" edge="1">
          <mxGeometry width="50" height="50" relative="1" as="geometry">
            <mxPoint x="90" y="320" as="sourcePoint" />
            <mxPoint x="360" y="320" as="targetPoint" />
          </mxGeometry>
        </mxCell>
        <mxCell id="msg8" value="&lt;b&gt;&lt;font style=&quot;font-size: 13px;&quot;&gt;POST /api/cart&lt;/font&gt;&lt;/b&gt;" style="endArrow=block;html=1;strokeWidth=2;" parent="1" edge="1">
          <mxGeometry width="50" height="50" relative="1" as="geometry">
            <mxPoint x="360" y="340" as="sourcePoint" />
            <mxPoint x="570" y="340" as="targetPoint" />
          </mxGeometry>
        </mxCell>
        <mxCell id="msg9" value="&lt;b&gt;&lt;font style=&quot;font-size: 13px;&quot;&gt;Vérifie stock&lt;/font&gt;&lt;/b&gt;" style="endArrow=block;html=1;strokeWidth=2;" parent="1" edge="1">
          <mxGeometry width="50" height="50" relative="1" as="geometry">
            <mxPoint x="570" y="360" as="sourcePoint" />
            <mxPoint x="840" y="360" as="targetPoint" />
          </mxGeometry>
        </mxCell>
        <mxCell id="msg10" value="&lt;b&gt;&lt;font style=&quot;font-size: 13px;&quot;&gt;Stock OK&lt;/font&gt;&lt;/b&gt;" style="endArrow=block;html=1;dashed=1;strokeWidth=2;" parent="1" edge="1">
          <mxGeometry width="50" height="50" relative="1" as="geometry">
            <mxPoint x="840" y="380" as="sourcePoint" />
            <mxPoint x="570" y="380" as="targetPoint" />
          </mxGeometry>
        </mxCell>
        <mxCell id="msg11" value="&lt;b&gt;&lt;font style=&quot;font-size: 13px;&quot;&gt;Produit ajouté&lt;/font&gt;&lt;/b&gt;" style="endArrow=block;html=1;dashed=1;strokeWidth=2;" parent="1" edge="1">
          <mxGeometry width="50" height="50" relative="1" as="geometry">
            <mxPoint x="570" y="400" as="sourcePoint" />
            <mxPoint x="360" y="400" as="targetPoint" />
            <mxPoint as="offset" />
          </mxGeometry>
        </mxCell>
        <mxCell id="msg12" value="&lt;b&gt;&lt;font style=&quot;font-size: 13px;&quot;&gt;Confirmation ajout&lt;/font&gt;&lt;/b&gt;" style="endArrow=block;html=1;dashed=1;strokeWidth=2;" parent="1" edge="1">
          <mxGeometry width="50" height="50" relative="1" as="geometry">
            <mxPoint x="360" y="420" as="sourcePoint" />
            <mxPoint x="90" y="420" as="targetPoint" />
          </mxGeometry>
        </mxCell>
        <mxCell id="msg13" value="&lt;b&gt;&lt;font style=&quot;font-size: 13px;&quot;&gt;3. Valide le panier&lt;/font&gt;&lt;/b&gt;" style="endArrow=block;html=1;strokeWidth=2;" parent="1" edge="1">
          <mxGeometry width="50" height="50" relative="1" as="geometry">
            <mxPoint x="90" y="460" as="sourcePoint" />
            <mxPoint x="360" y="460" as="targetPoint" />
          </mxGeometry>
        </mxCell>
        <mxCell id="note1" value="&lt;font style=&quot;font-size: 13px;&quot;&gt;&lt;b&gt;Si non connecté:&lt;/b&gt;&lt;/font&gt;" style="shape=note;whiteSpace=wrap;html=1;backgroundOutline=1;darkOpacity=0.05;fillColor=#fff2cc;strokeColor=#d6b656;size=20;" parent="1" vertex="1">
          <mxGeometry x="380" y="530" width="160" height="30" as="geometry" />
        </mxCell>
        <mxCell id="msg14" value="&lt;b&gt;&lt;font style=&quot;font-size: 13px;&quot;&gt;Redirection connexion&lt;/font&gt;&lt;/b&gt;" style="endArrow=block;html=1;dashed=1;strokeWidth=2;" parent="1" edge="1">
          <mxGeometry width="50" height="50" relative="1" as="geometry">
            <mxPoint x="360" y="500" as="sourcePoint" />
            <mxPoint x="90" y="500" as="targetPoint" />
          </mxGeometry>
        </mxCell>
        <mxCell id="msg15" value="&lt;b&gt;&lt;font style=&quot;font-size: 13px;&quot;&gt;POST /api/login&lt;/font&gt;&lt;/b&gt;" style="endArrow=block;html=1;strokeWidth=2;" parent="1" edge="1">
          <mxGeometry width="50" height="50" relative="1" as="geometry">
            <mxPoint x="360" y="520" as="sourcePoint" />
            <mxPoint x="570" y="520" as="targetPoint" />
          </mxGeometry>
        </mxCell>
        <mxCell id="msg16" value="&lt;b&gt;&lt;font style=&quot;font-size: 13px;&quot;&gt;4. POST /api/orders&lt;/font&gt;&lt;/b&gt;" style="endArrow=block;html=1;strokeWidth=2;" parent="1" edge="1">
          <mxGeometry width="50" height="50" relative="1" as="geometry">
            <mxPoint x="360" y="610" as="sourcePoint" />
            <mxPoint x="570" y="610" as="targetPoint" />
          </mxGeometry>
        </mxCell>
        <mxCell id="msg17" value="&lt;b&gt;&lt;font style=&quot;font-size: 13px;&quot;&gt;Crée commande&lt;/font&gt;&lt;/b&gt;" style="endArrow=block;html=1;strokeWidth=2;" parent="1" edge="1">
          <mxGeometry width="50" height="50" relative="1" as="geometry">
            <mxPoint x="570" y="640" as="sourcePoint" />
            <mxPoint x="840" y="640" as="targetPoint" />
          </mxGeometry>
        </mxCell>
        <mxCell id="msg18" value="&lt;b&gt;&lt;font style=&quot;font-size: 13px;&quot;&gt;Commande créée&lt;/font&gt;&lt;/b&gt;" style="endArrow=block;html=1;dashed=1;strokeWidth=2;" parent="1" edge="1">
          <mxGeometry width="50" height="50" relative="1" as="geometry">
            <mxPoint x="840" y="670" as="sourcePoint" />
            <mxPoint x="570" y="670" as="targetPoint" />
          </mxGeometry>
        </mxCell>
        <mxCell id="msg19" value="" style="endArrow=block;html=1;fontStyle=0;strokeWidth=2;" parent="1" edge="1">
          <mxGeometry width="50" height="50" relative="1" as="geometry">
            <mxPoint x="570" y="700" as="sourcePoint" />
            <mxPoint x="1080" y="700" as="targetPoint" />
            <Array as="points" />
          </mxGeometry>
        </mxCell>
        <mxCell id="ddjebmlTCtiFVDUT4N2z-1" value="&lt;b&gt;&lt;font style=&quot;font-size: 13px;&quot;&gt;5. Traite paiement&lt;/font&gt;&lt;/b&gt;" style="edgeLabel;html=1;align=center;verticalAlign=middle;resizable=0;points=[];" parent="msg19" vertex="1" connectable="0">
          <mxGeometry x="0.3765" y="-2" relative="1" as="geometry">
            <mxPoint y="-3" as="offset" />
          </mxGeometry>
        </mxCell>
        <mxCell id="msg20" value="" style="endArrow=block;html=1;dashed=1;strokeWidth=2;" parent="1" edge="1">
          <mxGeometry width="50" height="50" relative="1" as="geometry">
            <mxPoint x="1080" y="720" as="sourcePoint" />
            <mxPoint x="570" y="720" as="targetPoint" />
          </mxGeometry>
        </mxCell>
        <mxCell id="ddjebmlTCtiFVDUT4N2z-2" value="&lt;b&gt;&lt;font style=&quot;font-size: 13px;&quot;&gt;Paiement confirmé&lt;/font&gt;&lt;/b&gt;" style="edgeLabel;html=1;align=center;verticalAlign=middle;resizable=0;points=[];" parent="msg20" vertex="1" connectable="0">
          <mxGeometry x="-0.3686" y="2" relative="1" as="geometry">
            <mxPoint y="-3" as="offset" />
          </mxGeometry>
        </mxCell>
        <mxCell id="msg21" value="&lt;b&gt;&lt;font style=&quot;font-size: 13px;&quot;&gt;Met à jour statut&lt;/font&gt;&lt;/b&gt;" style="endArrow=block;html=1;strokeWidth=2;" parent="1" edge="1">
          <mxGeometry width="50" height="50" relative="1" as="geometry">
            <mxPoint x="570" y="740" as="sourcePoint" />
            <mxPoint x="840" y="740" as="targetPoint" />
          </mxGeometry>
        </mxCell>
        <mxCell id="msg22" value="&lt;b&gt;&lt;font style=&quot;font-size: 13px;&quot;&gt;Confirmation commande&lt;/font&gt;&lt;/b&gt;" style="endArrow=block;html=1;dashed=1;strokeWidth=2;" parent="1" edge="1">
          <mxGeometry width="50" height="50" relative="1" as="geometry">
            <mxPoint x="360" y="760" as="sourcePoint" />
            <mxPoint x="90" y="760" as="targetPoint" />
            <mxPoint as="offset" />
          </mxGeometry>
        </mxCell>
        <mxCell id="ddjebmlTCtiFVDUT4N2z-5" value="&lt;b&gt;&lt;font style=&quot;font-size: 13px;&quot;&gt;Si connecté:&lt;/font&gt;&lt;/b&gt;" style="shape=note;whiteSpace=wrap;html=1;backgroundOutline=1;darkOpacity=0.05;fillColor=#fff2cc;strokeColor=#d6b656;size=20;" parent="1" vertex="1">
          <mxGeometry x="380" y="620" width="160" height="30" as="geometry" />
        </mxCell>
      </root>
    </mxGraphModel>
  </diagram>
</mxfile>
